<?xml version="1.0" encoding="UTF-8" standalone="no"?>
<svg width="2000" height="2000">
  <g
      id="layer2"      
    >
    <path d="9.37 12.27-8.72 9.68 " stroke="black" stroke-width="5px"/>
    <path
        id="path2478"
        style="fill-rule:evenodd;stroke:#000000;stroke-width:.90407px;fill:#000000"
        d="9.37 12.27-8.72 9.68 2.58-0.97 3.56-11.62 11.62-10.33 10.98s-8.07 10.01-9.69 13.88c-1.61 3.88-4.52 8.72-5.17 12.59-0.64 3.88-1.29 9.04-0.32 10.34 0.97 1.29 10.01 4.19 10.01 4.19l7.1-0.32 3.23 1.61 80.4-1.29 1.94-3.87 37.78-4.52 41.65 0.32 12.59-0.97 1.62-0.64 6.13 0.32s7.43 4.2 8.4 7.43c0.96 3.22 0.96 9.04 0.32 12.27-0.65 3.22-2.91 8.71-5.17 10.65s-7.75 2.91-7.75 2.91l-4.84-2.26-19.7-0.33-35.19 2.26-35.52-1.93-3.23-2.26-78.46 1.93-1.61 1.94-5.49 0.32-13.89 7.43s-5.81 5.49-7.42 9.04c-1.62 3.55-4.84 10.33-4.84 14.85s2.26 11.3 2.26 11.3l0.32 6.14-2.26 13.56s-1.94 3.23-5.17 4.52-18.4 0.65-20.66-0.65c-2.26-1.29-8.4-5.16-9.69-7.42s2.91-19.05 2.91-19.05l6.13-7.11s1.94-6.13 1.94-9.36-4.84-11.95-4.84-11.95l-2.91-5.48 1.29-12.92s4.52-20.66 5.49-24.22c0.97-3.55 7.43-17.43 9.69-21.95s13.24-18.08 15.5-20.02 24.53-21.31 24.21-21.63z"
    />
  </g>
</svg>